Coordinates
version=1
nRows=13
nColumns=34
inDegrees=yes

Units are S.I. units (second, meters, Newtons, ...)
If the header above contains a line with 'inDegrees', this indicates whether rotational values are in degrees (yes) or radians (no).

endheader
time	pelvis_tilt	pelvis_list	pelvis_rotation	pelvis_tx	pelvis_ty	pelvis_tz	hip_flexion_r	hip_adduction_r	hip_rotation_r	knee_angle_r	ankle_angle_r	subtalar_angle_r	mtp_angle_r	hip_flexion_l	hip_adduction_l	hip_rotation_l	knee_angle_l	ankle_angle_l	subtalar_angle_l	mtp_angle_l	lumbar_extension	lumbar_bending	lumbar_rotation	arm_flex_r	arm_add_r	arm_rot_r	elbow_flex_r	pro_sup_r	arm_flex_l	arm_add_l	arm_rot_l	elbow_flex_l	pro_sup_l
      9.40000000	      2.18029768	     15.48756641	     -7.13245325	      0.56026897	      0.91833834	      0.04394760	      0.29785127	     -8.50362308	      2.86382173	      3.94504016	     13.56640044	      0.58452765	      0.00000000	     58.74668699	      2.31243343	     -8.05744618	     31.65477633	      3.50012531	     -1.45664360	      0.00000000	     -8.55246795	    -15.21451984	      5.54545185	     73.34717262	     11.13233807	     74.54157527	    123.78077716	     99.96121844	     52.93027471	      8.59111104	     54.68189981	    116.71075382	     78.15246642
      9.41666670	      2.43532640	     15.24432483	     -7.44876418	      0.55947556	      0.91719861	      0.04271021	      0.44382048	     -8.20872787	      3.76966992	      4.51073073	     13.81413254	     -0.68813870	      0.00000000	     58.65357463	      2.31916412	     -7.10763207	     31.66753817	      2.65558554	     -3.08156631	      0.00000000	     -8.78820911	    -14.89062606	      5.78698677	     73.67809723	     11.20321553	     74.51565755	    123.30426518	     99.95760714	     53.16166906	      8.60582780	     54.53040767	    116.51104589	     78.08361095
      9.43333330	      2.56354332	     15.10574965	     -7.60928320	      0.56050085	      0.91914330	      0.04258810	      0.51027638	     -8.06695498	      3.91580536	      4.87747608	     13.98513396	     -0.94078460	      0.00000000	     58.37656830	      2.32396736	     -6.88093763	     31.32788970	      2.50550272	     -3.28557644	      0.00000000	     -8.84350151	    -14.78087695	      5.88815146	     73.50365919	     11.09705968	     74.67361144	    123.28739820	     99.96092198	     52.89147700	      8.58839111	     54.64314545	    116.68570581	     78.07998216
      9.45000000	      2.66938056	     14.97562880	     -7.89906269	      0.56041826	      0.91825426	      0.04272366	      0.60655579	     -7.90480494	      4.51137678	      5.18352430	     14.29780607	     -1.65086418	      0.00000000	     58.18014716	      2.30222778	     -6.50629476	     31.03346315	      2.03292804	     -4.27945609	      0.00000000	     -8.89127471	    -14.76006603	      6.08435564	     73.62681449	     10.98537531	     74.85173470	    123.31690033	     99.96442999	     52.76979801	      8.59976924	     54.59943089	    117.58700534	     78.07431952
      9.46666670	      2.74703548	     14.87576629	     -8.01276895	      0.56119419	      0.91666455	      0.04281466	      0.73305711	     -7.79515303	      4.62679356	      5.64711297	     14.34690077	     -1.78979595	      0.00000000	     58.06756700	      2.33505983	     -6.35736351	     30.90149737	      2.10150869	     -4.50361452	      0.00000000	     -8.91086143	    -14.76949875	      5.90275630	     73.64865537	     10.93864322	     74.84173858	    123.29692492	     99.96353232	     52.76822540	      8.63216502	     54.56940579	    117.69513413	     78.07270128
      9.48333330	      2.95646687	     14.68758286	     -8.06545443	      0.56047658	      0.91562158	      0.04477656	      0.71996675	     -7.49548734	      5.52440629	      6.13367680	     14.35542473	     -3.08059584	      0.00000000	     57.91351861	      2.50160545	     -5.65200649	     30.83174999	      1.51548727	     -5.44604691	      0.00000000	     -9.10529520	    -14.55902944	      5.93452746	     73.81515615	     11.16826857	     74.34962339	    122.57159754	     99.91957178	     52.83796309	      8.39019336	     54.02400767	    118.10835664	     78.05502625
      9.50000000	      3.12037377	     14.51616553	     -8.03106985	      0.55951008	      0.91443770	      0.04392286	      0.87009020	     -7.22866498	      5.70315807	      6.75835362	     14.73565071	     -3.63469268	      0.00000000	     57.88941198	      2.60814708	     -5.41754810	     30.80303487	      1.52521067	     -5.58278322	      0.00000000	     -9.16738090	    -14.48880698	      5.78844684	     73.93987692	     11.03880799	     74.16121849	    122.54043073	     99.90742125	     53.30397272	      8.07449643	     53.69164238	    118.23252435	     78.04898148
      9.51666670	      3.36464037	     14.26327854	     -8.09901436	      0.55843322	      0.91293835	      0.04436352	      1.05412111	     -6.81869602	      6.66052283	      7.54602948	     14.73486657	     -5.17229018	      0.00000000	     57.78871727	      2.63375962	     -4.87537841	     30.75064897	      1.06091446	     -6.28662283	      0.00000000	     -9.50231719	    -14.32420853	      5.51027436	     74.25308736	     11.25726077	     73.56083331	    122.37682592	     99.87392689	     53.60330944	      7.89949210	     53.27592681	    118.49355249	     78.05383532
      9.53333330	      3.51590154	     14.10569426	     -8.05124725	      0.55993354	      0.91209842	      0.04436528	      1.30769243	     -6.54521895	      7.00621002	      8.46072679	     15.34815456	     -5.96527647	      0.00000000	     57.73794941	      2.75944914	     -4.58582397	     30.74548940	      0.92740801	     -6.42467860	      0.00000000	     -9.61931573	    -14.26456686	      5.34650470	     74.43792399	     11.20795921	     73.44531015	    122.42484866	     99.87432825	     53.95301692	      7.71321640	     53.09162954	    118.63473701	     78.06333414
      9.55000000	      3.65132685	     13.95817615	     -8.15632580	      0.55835026	      0.91117509	      0.04615368	      1.67884159	     -6.20519780	      7.19322694	      9.38501706	     15.55288467	     -6.24756049	      0.00000000	     57.59515794	      2.66234019	     -4.32009189	     30.56199816	      0.78026492	     -6.34563704	      0.00000000	     -9.89294391	    -14.39048174	      5.15678812	     74.51279874	     11.22880430	     73.38443682	    122.31806619	     99.87332981	     53.98912821	      7.62347248	     53.06013841	    118.47880988	     78.06171542
      9.56666670	      3.74636042	     13.84637586	     -8.52333554	      0.55866239	      0.91006227	      0.04449903	      2.32562266	     -5.83977097	      9.28596944	     10.73175283	     15.48698008	     -9.07451850	      0.00000000	     57.57055147	      2.44214379	     -4.43974264	     30.37265817	      0.19715875	     -7.00155524	      0.00000000	    -10.12512402	    -14.32008623	      5.01369189	     74.99468550	     11.79164858	     73.25273333	    122.22782770	     99.88214226	     54.27819891	      7.48020459	     52.95517031	    118.40918055	     78.09509881
      9.58333330	      3.89355648	     13.69243356	     -8.56906910	      0.56086644	      0.90824086	      0.04430343	      2.60720598	     -5.58765065	      9.55735153	     11.82673921	     16.12239430	     -9.73054533	      0.00000000	     57.39170411	      2.50748069	     -4.15845458	     30.10843423	      0.14588766	     -6.96649793	      0.00000000	    -10.33547598	    -14.27642546	      4.77553976	     75.02137848	     12.03333191	     73.25243921	    122.39331289	     99.88208502	     54.18258770	      7.80632175	     53.16903329	    118.53186540	     78.11016188
      9.60000000	      4.03072661	     13.51176899	     -8.60651013	      0.56114814	      0.90574542	      0.04548853	      3.06390041	     -5.23069383	     10.12699366	     13.17842757	     16.69078812	    -10.52540150	      0.00000000	     57.22304723	      2.45424896	     -3.99793780	     29.83977382	      0.18078564	     -7.28788768	      0.00000000	    -10.60612811	    -14.30625494	      4.46720071	     75.14003403	     12.23010073	     73.22337962	    122.68029664	     99.88217339	     54.20117314	      7.93875879	     53.51201096	    118.85229790	     78.13777610
